<svg id="stage" xmlns="http://www.w3.org/2000/svg" width="1400" height="900" viewBox="0 0 1400 900" style="background: rgb(10, 29, 58);"><rect x="0" y="0" width="1400" height="900" fill="#0a1d3a"></rect><text x="700" y="90" class="title" font-size="56" text-anchor="middle" fill="#e8ecf2">Does abortion reduce crime?</text><text x="700" y="130" class="subtitle" font-size="30" text-anchor="middle" fill="#c8d0e0">three ways to estimate the same causal effect</text><g><path d="M59.79909963659126 160.286915453556 C59.79909963659126 160.286915453556, 59.79909963659126 160.286915453556, 59.79909963659126 160.286915453556 M59.79909963659126 160.286915453556 C59.79909963659126 160.286915453556, 59.79909963659126 160.286915453556, 59.79909963659126 160.286915453556 M60.970373288063385 183.37702045160597 C66.09792065524982 178.21914101063325, 71.96837729799626 167.29075346528126, 80.53232998905315 156.76959955910868 M61.505041253088095 184.33436015936798 C67.07755964334906 178.52354403217717, 72.0796099567371 170.23023602137076, 75.8783806054069 161.97890157098598 M56.56911336930551 206.69915687697977 C70.76366253859976 192.0977901323921, 79.46193293434675 180.16810570740486, 97.857856263854 155.9687508887229 M61.389392844607016 210.40970915588588 C67.94030295155196 195.628825277609, 79.4625945467167 179.8224491688418, 93.16346477109978 160.9970041497228 M59.06973180748125 230.59146084385748 C70.31773528906959 214.24441507490974, 88.85794158493431 192.46126775728445, 107.87212612996345 161.50979827546598 M60.289174886565405 234.32833131524558 C77.72939312205541 209.11914072961872, 95.50268274661323 182.00444805465887, 109.61156239504461 157.8377500084889 M59.72198446196556 256.0190202428641 C80.45661293947458 230.47669493601742, 104.41790156668156 197.5600663021464, 132.5983329467565 158.959392109963 M60.47990007427573 257.3635420671346 C78.30260832284576 238.88729019076598, 94.12179289075794 218.17779370883937, 127.67396742255391 158.91117332697183 M63.61156469213347 278.4859854646246 C92.52633911425383 240.8610575819579, 121.55978519999101 202.05506731436589, 143.07203113725708 157.49239732712795 M58.381612353050514 283.45662559124037 C95.04605139235667 238.02705635729563, 127.50380086276488 191.64748493411406, 145.4979286125891 161.98942907914807 M59.410103357359944 306.28556939976403 C82.5700794753837 264.3556754260712, 112.19174580031302 221.9719007861557, 159.3854419335423 156.86528522900778 M61.68388691820222 308.09183481725046 C87.67969202582637 274.5653693268348, 110.26714338521057 240.49211005984137, 164.34595528316478 161.80518485612708 M60.969897058693746 330.7993532704644 C85.91401604029075 287.4186417726987, 119.09177955656396 239.72608993852663, 177.30159664558113 162.28138487305714 M58.6208795939544 331.1722312374693 C94.50471074986517 280.794881199405, 130.92994154789176 228.67269962308222, 178.4373388202087 159.8569907203118 M61.50727134070234 353.01087649315417 C111.65721107232794 288.69059457893167, 161.42310213394964 216.49372667690176, 195.11489368214563 160.6896076958291 M58.581384533348654 354.17125632345903 C101.40692940116186 288.1576445684003, 148.48188901410978 221.31834839450372, 197.45858832763588 158.2413153565496 M59.569386373474224 382.90393501210826 C119.47792762532295 299.6395575803618, 178.199765509316 215.76646920559114, 215.71030281689778 161.2769765340426 M61.17304118379616 379.6967080621376 C105.40880720237459 314.9037919482754, 156.67785946626228 243.85856863108125, 213.45530722152532 159.88347871020397 M58.932100548403014 402.85159578572575 C113.1239628048103 325.57369660431243, 165.65607425387492 249.1529866704406, 233.41284336034968 161.57647466384836 M60.02925847781995 403.1840770708899 C119.26198681780217 323.4238061880993, 175.58043460277253 247.15415269339059, 230.02365554566427 161.18841118520086 M57.21994136656089 427.07232227181 C110.7165652570587 364.4280115265023, 158.0847621966314 294.80614906943845, 245.5391082128273 160.38041462811236 M59.208496066808436 429.3634723213685 C129.2259720722342 332.72649267203553, 194.99709932288954 238.38842920829143, 248.08684660643178 159.7341691106727 M59.10297312283257 452.3947520483999 C139.2075228056927 336.46430357819946, 219.47406441698251 222.20077202674074, 265.3752612995735 157.9525269705162 M60.540189712164256 452.0192060778791 C103.84566262325711 395.0807680240338, 146.1608559962011 334.33204670444803, 264.39395310664156 158.81594275314453 M60.72849191877439 479.04859374431 C128.47568147196242 378.44705720671084, 195.31538364595275 284.3002415816934, 281.47402874148054 159.11393088491369 M60.06963719811888 477.0772801824108 C124.04598798410943 387.9454901746454, 189.88963988151008 293.73753580916247, 282.48511450991964 158.81713920802343 M57.99382487234908 502.15751693444895 C154.53073837239222 372.0983142956182, 245.4431364891066 245.8471514505042, 301.4710821008471 160.19699088625234 M59.464498694450874 501.48535001015597 C124.21477529763874 410.6109587077842, 190.0471176961217 315.41065493378636, 299.670563252939 159.11286591641974 M59.679806600838674 526.816657242851 C143.9616740448516 410.79321855757496, 223.90143690513543 291.4216858357216, 317.78405181871557 161.99124727695954 M60.60474560201253 526.7360469060952 C143.83442933350116 404.417999137413, 230.2525688996068 280.23794451913426, 315.2422788893189 159.70830677125798 M61.430990436085374 550.8376432221445 C153.54385590604696 412.8356367474194, 250.15652263997035 271.0429692194906, 334.33973043301154 159.1086535776427 M60.474088173434886 550.4025196206388 C113.25965380433605 469.099546123617, 172.24452127667817 385.8711430829099, 334.14425760983806 160.27825896880412 M58.26283815879681 574.9835922132396 C157.53931962546608 439.9482107554321, 251.52170316794152 303.1711391097125, 350.3522439423356 160.34341857381466 M60.18090074885943 574.5828771258854 C131.66648412899917 480.52206732468017, 197.52939305681323 385.0130675954042, 350.9475695538673 159.7060128221691 M60.310596861483624 599.6836043958307 C163.95349376598494 453.31884747871896, 266.59896909000025 306.1029316229233, 367.1760304767647 160.8635624209002 M59.23096557909446 600.0019721884967 C165.26470602473594 446.29948138802933, 274.6398870651463 289.27442994054815, 367.8643345180908 160.38794127046617 M60.44254440694393 623.0632460950236 C183.86492450305371 452.1369220358478, 304.63785432764655 279.8554452004585, 385.3487519477173 159.02202719083726 M59.38798383950533 623.9700952662448 C145.24759902542596 510.3667442745012, 224.99452037033686 396.14105345484904, 385.072086115615 159.28564578077496 M61.308583138927624 648.1585524670678 C138.66578656493746 532.022663190114, 218.42871974782958 416.1142339314967, 401.6561092625923 160.51462508416495 M60.487160608216925 648.4715725310045 C148.83772034965307 516.450373746731, 242.3316732580476 382.78013174729125, 401.102765488214 160.4572920692595 M59.89299040118475 674.2211836682138 C171.5980133512627 517.0063766736932, 285.28398504985574 356.71777732676486, 418.43890763784174 160.09533716855512 M59.2215134633543 672.5579176546511 C206.03000170579998 471.55734654007887, 348.27691069754985 270.0568889127939, 418.7168555867148 160.9207772192167 M61.014418537465374 697.6184248547112 C173.49445166782698 541.9410800352614, 286.0454469694341 384.81230059497676, 434.4515979808646 160.19122564454688 M59.191872483042516 697.4978318090592 C194.48133073536007 496.5270324355444, 333.5124258573581 298.76683678030156, 435.51192255289135 160.7186419468106 M58.825894891519376 722.3331861828102 C143.7653704944422 610.2673502788749, 224.00566548609274 495.20271414447933, 454.256582635411 158.92582566839022 M60.156880245406455 722.3272036661043 C142.59312554212156 591.1979962226028, 229.61568929880778 465.90414608276774, 453.06692146486876 159.9914624239163 M59.914821807096814 744.8640028087608 C169.8313361817967 590.810670368005, 274.6733379296519 441.28961625611794, 458.82626309091194 172.98303419353698 M60.082991828571174 745.7991093976609 C175.77834492496243 589.9158083931725, 287.70537826553317 430.2724580074934, 460.09424404645307 174.89173911961052 M58.402976627947695 771.1250348888129 C202.87744189318522 573.4324102994102, 340.2202266741895 377.0696351609329, 459.13325030922374 197.70272411050317 M60.39447481066168 769.9338126756043 C137.44719701354876 648.1098280253461, 220.11576800887508 529.1192583989143, 460.1799289938756 198.72951094003434 M59.620088134173066 794.1269155349278 C142.90999997763825 665.5183645161648, 231.85844797306032 541.6058242227595, 460.9259888703091 222.72548104407096 M60.59698570615402 794.7496126275205 C161.52257337056218 638.5091390194133, 270.5821930060649 483.48565123997395, 460.309286121474 223.46709202559495 M59.30953079682082 817.353358991933 C147.45727107864522 687.6547513449985, 241.7778703847925 556.3627367888135, 461.5043811179177 247.63734015049027 M59.633264220471084 818.6894520138623 C199.13517536814211 614.0691619399693, 343.9060357396494 406.90040201208757, 459.39252050737304 248.41380854816722 M62.29051270504514 841.8887922389227 C194.802769954844 650.1005881472943, 331.7712511173975 454.0447855092677, 460.5027043957998 273.0399615860112 M61.49532117714206 841.1985488293487 C159.06865024349977 694.212869066938, 260.4207754539988 550.0327816533396, 460.3976497296979 272.34617417962625 M78.3881456750212 839.8502263692114 C225.87329008195374 631.9634186873072, 370.8759053686484 422.8515192125353, 460.5896110477054 295.0506305068837 M78.90450862671712 840.4062676829193 C165.87695812857115 708.749638264005, 255.2064883737953 579.7236989349572, 459.60050386657355 297.057890091847 M95.20951826902065 839.0470517348517 C211.04438540816116 671.1807349210093, 332.59832204768526 498.3114393439507, 458.56812841738446 322.20225706935764 M96.23759286584291 839.6359149422516 C224.19018302332074 651.5723419193872, 357.5363477996085 459.3843409203387, 459.83472549612503 321.3098449567044 M113.40908139444252 841.6063305363824 C236.23250122315258 673.8127745607226, 349.73652581624594 511.3019929589401, 458.8756588485869 344.34337642968325 M112.54214003629347 841.4800313235095 C222.57822069619482 687.9883684326323, 330.5514373320399 533.6031502003314, 459.74176969647726 345.98011494607357 M130.99639026773883 840.5132938414757 C262.57197977164276 656.3502981059547, 395.5352132377242 466.2493054388278, 461.48397968506276 368.73814874411045 M130.3942580888958 840.5908889099901 C260.1931560313449 662.0830057213623, 388.19611295644177 481.5382442556272, 460.62090404575525 369.6139637318295 M146.9946457963086 841.4262538506707 C220.05143755277305 739.7236881621876, 292.3241228578388 639.6357628293326, 459.3992432705621 395.3663591688891 M148.10713816542395 840.1454034178576 C211.7002072526243 755.0492935333382, 273.65258591154 665.0108924718586, 460.4792086220841 393.5738424858471 M164.43500032390185 841.0999957202171 C242.83516146751052 719.9878537404555, 325.45228021102025 598.9806877957022, 458.5619769488349 417.8234178602694 M164.07536034400292 840.9185260189865 C253.73206278315712 708.8117023290539, 347.0054808382951 576.6883042324632, 459.28157600358867 419.1893898800014 M180.82258024001052 838.6075866172553 C247.27116887925197 749.1999519983879, 310.8450437145931 656.9837711824865, 459.3041080244789 443.4479570584141 M181.42634631526886 840.8889254127984 C256.53041104838576 736.1162429888732, 328.03844764142997 632.8794665219797, 459.3610794115268 443.32798924552156 M198.10679418336088 840.7136592469428 C253.61068777128804 757.5678503130495, 312.7089053146031 674.34842458369, 460.5427524732136 468.68407591943185 M198.41054455390076 841.0440595775525 C299.8213677929762 689.7987880937716, 403.37428947999297 541.9064207327746, 459.6001023373378 466.5048150577428 M215.7856968067527 839.0942294155876 C291.9882775386729 729.7329965391401, 367.825460457766 615.1771242746053, 459.54070945148254 492.133906327536 M215.77164869115342 841.2380013217789 C303.9042543245666 710.0185920887665, 393.5106516548718 582.4350274486055, 460.8008542004983 492.7462492649336 M235.15447522252404 841.4085335292491 C317.8569035442337 713.7592684989742, 407.0771219222208 587.9283794737862, 461.1370325236324 517.0456944578665 M231.89125664800324 839.620359635376 C301.7217036924314 734.8636366788933, 373.65445506597973 631.8768660179977, 460.2078557451028 515.9813812543555 M249.62234338107143 841.6412255884098 C310.3193611984848 754.0493414899851, 372.29517786650985 662.3734669523294, 457.8250754332238 540.0760533333665 M250.61794881111692 840.2357377148315 C328.0478446139715 732.9320188240747, 401.09079971209854 627.4251892773632, 460.56763387217353 540.3379798753277 M268.58651821638546 837.7474574474579 C312.1949316923532 771.0207283387664, 363.2561556098368 700.5157543670867, 457.52252848241153 565.7839710558852 M267.3926909816146 841.3753710234294 C340.3648142885892 732.1434266437743, 412.21165332653027 630.5151928594028, 460.0531303096862 564.2586410314666 M284.3909440923932 842.2053057840725 C346.6585972018741 745.959183660773, 412.7261310743761 649.8440585626771, 462.6089856034948 588.5000832559159 M283.22920704065024 840.1403722984028 C346.6738540696626 753.0960910693543, 408.2864650509658 662.5688014872388, 459.6686928800495 589.9968874290258 M300.1217255384608 842.0714533270676 C341.08962332463983 794.2788679635098, 372.47695982762207 744.9235375176538, 462.26417503607695 614.7461062156686 M301.25169349946395 841.7451837091884 C347.3663680407193 765.7931882515157, 399.31793163141856 691.4087468444703, 459.12404335708203 613.4390838517004 M318.05936124132717 843.2792580114511 C369.73759609789363 767.1086439681749, 416.7863220314269 688.4146468206119, 462.38402437080714 636.7001089642339 M317.55456382884347 839.3065888107149 C357.0446061134659 785.5157081116419, 393.9227927856409 729.4354020321812, 460.5246669844474 639.0015679905247 M336.62651408879174 840.4335015862404 C384.06927541633837 775.6730644787478, 432.16623625104614 706.5899943009061, 458.23742819802357 664.105757713715 M336.6468260069111 841.1885395275457 C380.788471071367 776.6754176022108, 423.57153983897393 712.2832067307177, 459.64664812493544 662.4135600775817 M349.70758555978114 838.2402837365738 C384.6552462741217 788.9486333340799, 418.9099862660413 734.2931497578745, 462.2095010198383 687.7942719200017 M352.26313183977777 841.0147654540709 C385.9026087090208 787.3459984340107, 424.2897161288408 735.1760489145545, 459.7347093701093 687.1265478507938 M371.2979829690318 842.9612772349888 C402.8223432462462 791.633238784924, 436.4238575057086 749.2409516494888, 462.9796201904359 714.7564306232075 M368.14202467043805 841.6982458156222 C392.80223613488465 807.1574740661666, 418.9381290454713 774.7513120424912, 459.45603987398175 712.0109750638644 M385.14996798406696 842.8502784181185 C405.86987030154063 808.1688561534764, 430.4259347258334 774.0543559671755, 462.75586576484204 734.4462275710423 M387.95904548163867 839.8301637019761 C402.1339581132169 811.8591002392783, 422.61384280889337 780.5803653636109, 460.67387992985607 734.9079869632144 M406.2209700279108 839.9102772208773 C425.8003502271536 810.985048065165, 440.62199971245263 788.3998772124751, 456.8426811024319 759.6490631541309 M404.02550553234136 838.6436115871095 C419.8294902581956 818.9441032633265, 435.52593268516966 792.7184654219667, 461.948898483045 761.8682427285311 M420.8779324599382 840.8641740338899 C431.90539124326403 828.5823952016208, 438.08806185203497 817.5661981022172, 459.7040234989313 780.1202482188095 M420.87082376785844 841.7204986507095 C431.36498706854576 826.666062632644, 439.3522953190769 817.2527343915274, 460.1848721652118 783.1662182452131 M436.07373613952427 844.2239317477815 C444.0507846761025 831.4503500057646, 455.7135767356918 816.7517667966029, 464.4190584410133 808.1116122442809 M439.79395038350253 838.685702822464 C443.5857245188008 830.9029584261152, 452.870054318371 817.1621837292539, 461.4593795489671 809.4518142815259 M455.67174090821396 842.1597727326625 C455.5210615070196 836.8258888927863, 456.48981406914476 838.302656038331, 462.2146207073247 834.2374441509253 M455.11732460748505 841.9305202471041 C457.73881657663816 838.228650566064, 459.13336098476157 834.700621367963, 461.0729414781099 832.2393707239187" stroke="#5a2424" stroke-width="1.2" fill="none"></path><path d="M57.73928357782851 158.28107336008324 C140.721850442906 162.24282136335611, 218.42265854148874 165.05308862656594, 460.75815721278246 158.27533022344318 M59.723544887970036 160.12821520169263 C178.09644797149545 165.36037408788906, 298.1357747084098 165.44394987714062, 460.70745153796514 160.70063711461336 M458.83326260149477 160.4190367549658 C456.7084923845529 389.20254151374104, 457.5440982919931 616.6011677324772, 460.3224045425653 841.1896741718053 M459.60197104662655 159.54439171105622 C461.2588058902621 346.08280694186686, 462.04946317213773 530.8832171067595, 460.0710620328784 839.835389073193 M457.98021108460625 841.1734730294987 C358.1506497902924 846.125830521545, 252.59915254491338 842.9210201867019, 59.01542561479341 841.1921716924497 M459.2929612124086 841.0915881759983 C303.8859057593263 838.6933904331029, 149.82309524723058 839.3716230157657, 60.493960669914074 840.8583774222777 M59.78770157396794 838.5426770061255 C63.68039741194248 674.1722908958793, 63.070635887742036 506.69964343309397, 59.08449122011662 159.4756862491369 M60.12335232943296 840.740294058621 C53.0294339172244 650.4630495965481, 52.43286280554533 461.0143039748072, 59.60888313502073 160.39781058579683" stroke="#ee9b9b" stroke-width="2.4" fill="none"></path></g><g><path d="M237.53137841448188 205.86744545474647 C248.62412068210543 205.8217113139823, 253.1170117229223 203.08392413880378, 278.46312945112584 206.8217352963984 M237.4814792919904 205.58690366856754 C250.42555994540453 204.52882292073517, 265.38026567511264 206.63836153548507, 281.921589224413 207.3334516417235 M280.19513266310094 205.94878054633736 C280.32368336058374 216.18996282176985, 270.7925517442744 232.12462572663964, 275.42119751200084 239.22510179057718 M282.45039810426533 205.86689099185168 C277.83122457205843 220.53164220737025, 274.6298711312522 231.96111579719664, 272.8733865309507 237.0412355195731 M269.10467167124153 239.8062424995005 C260.6600219514221 237.54396683666974, 251.23656592667103 234.1501722762373, 243.92268216833472 237.99094768539072 M273.22660642154517 237.7185744058341 C265.18013897031545 236.6989304381326, 252.92010225944222 238.7854595619157, 247.61744648702444 236.75937515608967 M246.59610383734108 241.12833229079843 C247.73624827899823 227.54446095443413, 244.4244525382001 218.9245284136486, 239.71228556856514 209.23668020740152 M246.5742766071111 238.70610185973345 C245.56701578919106 230.07147508464232, 245.74638895761484 222.94033987825213, 238.51989458091558 208.13131537549197" stroke="#ee9b9b" stroke-width="2.2" fill="none"></path></g><g><path d="M281.1149561126716 205.94651477290319 C283.78407487208955 202.66529294066132, 280.30885174508205 196.74282307298853, 280.1802382697351 189.2815183843486 M281.07129438049157 205.7010407099966 C280.8775845326893 200.08313871859573, 282.85169933963937 196.63791228909977, 283.2063905713614 189.72927018650807" stroke="#ee9b9b" stroke-width="2.2" fill="none"></path></g><g><path d="M247.57094008112617 183.2966914271427 C248.09361479256853 182.98187312761553, 248.25991024902152 182.78796648266484, 248.75833599595438 182.94553659481022 C249.25676174288725 183.1031067069556, 250.21363229308676 183.88048894435266, 250.56149456272334 184.24211210001488 C250.90935683235992 184.6037352556771, 250.64814672681513 184.38426880662382, 250.8455096137739 185.1152755287835 C251.0428725007327 185.8462822509432, 252.27019697318383 188.24101822556838, 251.7456718844761 188.628152432973 C251.2211467957684 189.0152866403776, 248.40982932898334 187.26328926274812, 247.6983590815276 187.43808077321114 C246.98688883407186 187.61287228367416, 247.51573974120942 190.03032833748873, 247.4768503997417 189.67690149575105 C247.43796105827397 189.32347465401338, 247.6648739260749 185.90602392546225, 247.46502303272135 185.31751972278505 C247.2651721393678 184.72901552010785, 246.36010266668035 186.2866068759817, 246.2777450396204 186.14587627968794 C246.19538741256048 186.00514568339418, 246.55816845840246 184.4522282878577, 246.97087727036183 184.47313614502255 C247.3835860823212 184.4940440021874, 248.88243261227035 186.05371057747402, 248.7539979113765 186.27132342267697 M249.5301656619604 182.5671892422804 C249.53333837840887 182.82536201032283, 251.06508641456284 183.81890301917787, 250.80962226893158 184.94868878669806 C250.5541581233003 186.07847455421825, 248.10821303358088 189.15317893485997, 247.99738078817288 189.34590384740156 C247.88654854276487 189.53862875994315, 250.2355388877108 185.93267565859236, 250.1446287964835 186.10503826194764 C250.0537187052562 186.27740086530292, 247.55991899670832 190.325050612015, 247.45192024080913 190.38007946753322 C247.34392148490994 190.43510832305145, 249.8974334644273 186.85152365749883, 249.49663626108838 186.43521139505705 C249.09583905774946 186.01889913261527, 245.69774816200766 187.7853598039642, 245.0471370207755 187.8822058928825 C244.39652587954333 187.97905198180078, 244.64866178500642 187.94527788140954, 245.5929694136954 187.0162879285667 C246.5372770423844 186.08729797572386, 250.188698333343 182.31465156097258, 250.7129827929094 182.30826617582542 C251.2372672524758 182.30188079067827, 248.5688175294779 186.45117939817504, 248.73867617109374 186.9779756176838 C248.90853481270958 187.50477183719255, 251.29461134446183 186.20092753317437, 251.73213464260436 185.46904349287797" stroke="#ee9b9b" stroke-width="2.2" fill="none"></path></g><g><path d="M262.4323355477568 187.81885563720155 C262.8936688382096 188.49024753983548, 262.787346225571 190.19941101264692, 262.79155249192195 190.9409417444455 C262.7957587582729 191.68247247624407, 262.9640374578269 192.0850582291212, 262.45757314586234 192.26804002799295 C261.95110883389776 192.45102182686472, 260.2682437543079 191.98581244361176, 259.75276662013454 192.03883253767611 C259.2372894859612 192.09185263174047, 259.32774500894095 192.4797103015664, 259.36471034082234 192.5861605923791 C259.40167567270373 192.69261088319178, 259.8986064529837 193.2982677032482, 259.97455861142294 192.67753428255233 C260.05051076986217 192.05680086185646, 260.02786990041085 189.73747170583792, 259.8204232914579 188.86176006820392 C259.612976682505 187.98604843056992, 258.646056039565 187.66094565369124, 258.72987895770535 187.4232644567483 C258.8137018758457 187.18558325980538, 260.00018423711487 186.94200696495483, 260.32336080029995 187.4356728865463 C260.64653736348504 187.9293388081378, 260.47462364368357 189.50602581264593, 260.6689383368158 190.38525998629726 C260.86325302994805 191.26449415994858, 261.0282069909189 192.5019455774544, 261.48924895909323 192.71107792845424 M258.3792951632672 187.68365806773033 C258.73649130631827 187.61786682034463, 259.1215015404543 189.16721153699578, 259.8271519238395 189.217807101501 C260.5328023072247 189.2684026660062, 262.17716520971356 187.40188588754904, 262.61319746357856 187.98723145476166 C263.04922971744355 188.57257702197427, 262.38338699606527 191.92226175567322, 262.4433454470294 192.72988050477665 C262.50330389799353 193.53749925388007, 263.12374667479924 192.55593555741285, 262.9729481693633 192.8329439493822 C262.82214966392735 193.10995234135157, 262.64450316201896 194.6406764427939, 261.53855441441357 194.39193085659275 C260.4326056668082 194.1431852703916, 256.76558726509654 192.00939199066988, 256.337255683731 191.34047043217535 C255.90892410236538 190.67154887368082, 258.61289031395785 191.08179646342006, 258.96856492622004 190.3784015056256 C259.32423953848223 189.67500654783112, 258.10881157574494 187.05498235987864, 258.47130335730424 187.1201006854086 C258.83379513886354 187.18521901093857, 261.022636075381 190.4834008601737, 261.1435156155759 190.76911145880547 C261.2643951557708 191.05482205743724, 259.5916700241113 189.02480976843364, 259.1965805984736 188.83436427719923" stroke="#ee9b9b" stroke-width="2.2" fill="none"></path></g><g><path d="M266.3423154564779 180.6056227807867 C266.2050585650677 180.3894784997484, 266.308804570383 181.3587177835703, 266.9358655972517 181.62017498842735 C267.56292662412034 181.8816321932844, 269.5816758082593 181.57895580734066, 270.10468161768983 182.17436600992897 C270.62768742712035 182.76977621251729, 270.77165452113314 184.7672505120721, 270.0739004538347 185.19263620395716 C269.3761463865363 185.61802189584222, 266.3906283538413 184.80200390730698, 265.91815721389924 184.72668016123927 C265.4456860739572 184.65135641517156, 267.30851066420837 184.93651224613376, 267.23907361418253 184.74069372755088 C267.1696365641567 184.544875208968, 265.9165088733417 184.0981063898487, 265.501534913744 183.55176904974203 C265.08656095414636 183.00543170963536, 264.4278804756494 181.5844036112363, 264.7492298565965 181.46266968691086 C265.07057923754365 181.34093576258542, 267.1464213677053 182.70940407749328, 267.4296311994268 182.82136550378934 C267.71284103114834 182.9333269300854, 266.39149764023483 182.1565205666106, 266.4484888469256 182.1344382446873 C266.5054800536164 182.11235592276398, 267.25908462638995 182.4388372890713, 267.77157843957156 182.68887157224944 M268.4060818773961 181.74550249046635 C269.0882546369389 181.349337416215, 270.0900902197738 182.52746863673224, 269.93674006138144 182.3721868029429 C269.7833899029891 182.21690496915357, 267.4036269338454 180.76803149386376, 267.4859809270421 180.81381148773042 C267.5683349202388 180.85959148159708, 270.2007535130861 182.12661683824638, 270.4308640205618 182.6468667661428 C270.66097452803746 183.16711669403924, 269.9301554089501 183.43880035909507, 268.8666439718961 183.935311055109 C267.8031325348421 184.43182175112292, 264.93408352507424 185.68828022547046, 264.0497953982379 185.62593094222646 C263.16550727140157 185.56358165898246, 263.7559754302289 184.06457866732137, 263.5609152108779 183.56121535564492 C263.36585499152693 183.05785204396847, 262.2223642334212 183.05438660722768, 262.879434082132 182.6057510721677 C263.53650393084274 182.1571155371077, 266.42890460468436 180.71942350777746, 267.50333430314237 180.86940214528505 C268.57776400160037 181.01938078279264, 269.27004621958577 183.46016439695057, 269.3260122728801 183.50562289721321 C269.3819783261745 183.55108139747585, 268.1664603925402 181.6935830156547, 267.83913062290856 181.1421531468608" stroke="#ee9b9b" stroke-width="2.2" fill="none"></path></g><g><path d="M256.9539333796444 194.8077313682181 C257.3361085577587 194.88232577504996, 256.9515461345796 196.8298404643435, 257.54991772043286 197.13222677891125 C258.14828930628613 197.434613093479, 260.1856868190239 196.30679114556247, 260.54416289476404 196.62204925562455 C260.9026389705042 196.93730736568662, 259.92006821842466 198.88886833560608, 259.70077417487363 199.02377543928367 C259.4814801313226 199.15868254296126, 259.5232519735297 197.09229204337387, 259.22839863345797 197.4314918776901 C258.93354529338626 197.7706917120063, 258.6738424676453 200.77270625506463, 257.93165413444325 201.05897444518104 C257.1894658012412 201.34524263529744, 255.37353645812735 199.87476938875517, 254.77526863424586 199.14910101838845 C254.17700081036438 198.42343264802173, 254.41868141756106 197.2280511286053, 254.34204719115436 196.70496422298075 C254.26541296474767 196.1818773173562, 253.61425676590034 196.13383625096728, 254.3154632758057 196.01057958464116 C255.0166697857111 195.88732291831505, 258.3246422857376 196.12139418266784, 258.54928625058665 195.965424225024 C258.7739302154357 195.80945426738018, 255.69140218827056 195.40185375212076, 255.66332706490022 195.0747598387781 M256.24962896279357 196.96067338659765 C256.32807384336843 197.13620652602054, 257.0058236751248 197.02656671851233, 257.76784586625837 196.64438284675788 C258.5298680573919 196.26219897500343, 260.20190887817364 194.29368783547523, 260.821762109595 194.66757015607092 C261.44161534101636 195.04145247666662, 261.9745924379979 197.7833066749358, 261.4869652547867 198.88767677033198 C260.9993380715755 199.99204686572816, 258.9448468941657 201.48912703200224, 257.8959990103276 201.29379072844802 C256.8471511264895 201.0984544248938, 255.82667250246865 198.48048905993193, 255.193877951758 197.7156589490066 C254.56108340104734 196.9508288380813, 254.0426903088883 197.0142245996099, 254.09923170606365 196.7048100628962 C254.155773103239 196.3953955261825, 255.4764106257882 196.0206738977666, 255.5331263348101 195.85917172872448 C255.58984204383202 195.69766955968234, 254.47416879908806 195.47974886859478, 254.4395259601952 195.7357970486434 C254.40488312130233 195.99184522869203, 255.34883932628765 197.58472665704852, 255.3252693014529 197.39546080901624 C255.30169927661814 197.20619496098396, 253.65795526433342 194.6151716480264, 254.29810581118664 194.6002019604498" stroke="#ee9b9b" stroke-width="2.2" fill="none"></path></g><text x="260" y="300" class="title" font-size="42" text-anchor="middle" fill="#ee9b9b">Kitchen-sink OLS</text><g><path d="M89.57028411415774 312.1947337083767 C159.16891440283385 314.3692285734502, 223.9741585945068 316.20311276742507, 432.09515365574083 316.7384426643248 M91.4230886868581 314.9167425271867 C167.91302030869804 312.560108867161, 246.56709220174466 311.13058667442306, 430.93889919445553 313.8397771635239" stroke="#ee9b9b" stroke-width="2" fill="none"></path></g><text x="90" y="370" class="body" font-size="22" text-anchor="start">All 284 controls thrown in.</text><text x="90" y="408" class="body" font-size="22" text-anchor="start">Coefficient is uninterpretable.</text><text x="90" y="446" class="body" font-size="22" text-anchor="start">+234% effect on murder</text><text x="90" y="476" class="body" font-size="22" text-anchor="start">(impossible).</text><g><path d="M86.9397791057825 765.2772152274847 L427.6562459141016 770.6465195983649 L428.5475326687098 816.7494512885809 L94.76315108835698 822.0661860793829" stroke="none" stroke-width="0" fill="#0a1d3a"></path><path d="M92.33225068469136 768.816250336811 C159.3611499203225 768.8535930246123, 224.26007102444117 768.5538223467386, 433.119939948516 771.5122052166662 M90.03669146915253 768.4526850618253 C213.78975591764035 773.8609455098377, 339.5184417748043 774.0836943137633, 430.8790173651989 768.6903939153013 M434.51782496869566 766.7290639072656 C428.6062619699538 781.1118312146515, 427.0503069414198 795.7845551870763, 426.4301356643438 819.0786535412074 M427.6912138059735 768.9816281482578 C427.5948914320767 789.6323577273637, 426.86196730449797 804.2404283098876, 428.71407228261234 820.5831539794802 M431.24470034072505 817.3561503398655 C295.45055990988635 821.9109603377728, 160.6500601760508 822.658153200048, 87.47616413039201 820.5556725526674 M431.105159877888 820.3469423315047 C303.4881271028966 826.674595307932, 177.20671955669857 823.9637699225449, 90.36130665466555 818.6022217607925 M89.07312720716 824.5234168201684 C86.79864622816443 809.9236625943333, 88.60133988127112 802.9562478460372, 92.91763394773007 765.5082908779383 M89.38937598019838 821.3679401561618 C88.43507364973426 810.2206239443273, 89.55148729071021 794.6516448296607, 89.18212276250124 770.2478686973452" stroke="#ee9b9b" stroke-width="1.6" fill="none"></path></g><text x="260" y="803" class="label" font-size="22" text-anchor="middle" fill="#ee9b9b">do not use</text><g><path d="M499.95574604817847 160.25097663241132 C499.95574604817847 160.25097663241132, 499.95574604817847 160.25097663241132, 499.95574604817847 160.25097663241132 M499.95574604817847 160.25097663241132 C499.95574604817847 160.25097663241132, 499.95574604817847 160.25097663241132, 499.95574604817847 160.25097663241132 M501.00831883438525 241.57573613623595 C504.67266509176284 212.44703622712535, 508.3670569365075 191.04362367653187, 510.93616352252695 161.77534052576294 M500.9498762138247 240.49199905904447 C502.5636374130838 222.31009185026977, 503.7410601202638 203.91887832877467, 514.6365679597858 159.99793144720962 M501.9639224752211 321.2588713505039 C506.3821137015476 273.7378419187784, 513.1074197323667 225.1456044031184, 526.5749675672562 163.433835177356 M498.9733626905256 319.94750431372916 C506.22413737216795 261.84882716934476, 518.3979914395546 199.8589176204007, 528.5995128512443 158.25923856780827 M501.4315373500358 403.31722764669354 C510.0262122777702 328.6057813880058, 518.9809102164921 246.71387676032398, 542.6131478756921 161.0913585011541 M500.7640192755158 402.268015690907 C514.1124071769972 317.9553157681875, 527.8406333877135 235.86760194926478, 541.5276985494427 160.25529911698865 M497.57169222893685 484.43232919371275 C513.5233898899797 408.52699572361246, 526.2731775693117 336.03611879076107, 555.3835321705004 160.7135287257226 M498.9927992088852 482.15977107918695 C511.722087743557 382.6944054309028, 530.7920925494361 282.86927388826876, 555.5713770117486 159.25755021618644 M501.60299455220616 562.430656957588 C507.63278485521136 480.1957951500639, 525.226288231545 396.8826465359023, 572.875439569063 160.63069315843924 M499.42197172422783 563.9399676159031 C526.9918216747955 418.2242234952337, 552.8224830353595 273.6589645227155, 570.690424906329 158.63157232057952 M500.24290982302045 643.3656397432039 C522.9556666397923 514.9616340116256, 546.5008622111885 384.6453395825383, 586.3834743117143 158.7508247976574 M499.25648269344697 643.8454793011375 C528.1379851151694 484.41719669210534, 555.5255036824681 324.53781952575565, 586.0146787957825 160.6620368582708 M501.096065020809 724.5426558264335 C523.3360031953011 558.1971611209052, 551.9991134169346 395.87574468401846, 598.2140018007756 158.5296032975451 M500.61410333017454 725.3698872090121 C526.3813257141077 561.6842480905558, 554.0924482217589 399.06823069894557, 598.9922729640306 160.05692477850474 M500.1268950987798 804.7251460713119 C535.2740616098596 583.1503168280112, 573.7357201330572 362.45972797188045, 613.4312159225999 158.4209294034152 M499.4340662177843 804.3822315369517 C528.1225741158215 655.1435085866781, 555.8628366569399 504.3670582278325, 614.0370117717146 160.7923620169966 M507.9188368363134 841.7089189614029 C546.8279558508171 643.1920251437548, 581.18113230362 443.6801851951635, 626.4903444121 161.36069758692204 M507.4477404048494 840.6130757647426 C544.9336866903735 611.387132652497, 584.7280278381052 382.60936908133635, 627.5618554072793 161.06794589245138 M522.0176992125322 841.6431329456909 C556.5570047313504 604.5266172863088, 598.3845922898663 368.3730057404611, 643.2939905250677 158.35467626692835 M521.4641428783049 840.9253234585567 C562.1979906009517 659.5895910067069, 594.6004646583062 475.78040746252265, 641.4896463843294 160.05865869091932 M535.2622510872185 842.3991355514786 C574.0659539807176 667.1170315815771, 603.9104290992108 495.34220394257454, 657.0816254842941 159.03024462133365 M537.0610317557454 840.940786012884 C559.6449168386062 688.2579154919817, 586.6981198118239 537.521241029561, 656.4808764334683 160.2728122074874 M551.2794636831638 841.4168059566649 C579.1011178200658 674.4584864293374, 607.6272266782391 511.1816257133761, 669.2951257232385 159.49273831598842 M551.005148767775 841.5615252228114 C585.9765170309108 671.5377564314317, 616.241468973571 501.81183679852955, 670.9242237459677 159.2833934751936 M563.7250652561601 841.5987875801131 C587.9059374228204 680.5945352247028, 613.8640390746808 520.6452065283518, 683.8395874646916 161.75391152879212 M565.0177739279981 841.9390858743892 C596.27848200069 656.4026370652701, 630.0579471377703 471.17814813695094, 684.5223675524308 160.23152678912493 M580.2125965619988 840.214911340686 C628.2071864127198 591.1905476379131, 673.9991546641158 340.4809304351525, 699.3225121421124 159.8034749255953 M579.0287810000189 841.8539190036677 C605.0373585985744 679.2507975573347, 633.0409980452721 517.0454615862075, 699.0561735441293 159.37301168231943 M593.4424663234715 841.8066189162826 C616.9084691445896 695.024234659699, 643.2301373555325 548.0534932813604, 712.9146209782922 159.03755768429744 M593.230692964441 841.6948051557338 C639.7493339173817 622.282404258931, 677.7777237512244 403.3497498966546, 713.9705084516668 159.78178494986403 M606.8674884740369 840.4433084727538 C638.7530780204547 626.3641670223341, 678.9561766567919 407.93482745243455, 728.5890404066896 159.1302454707491 M607.869219262536 841.3902001136255 C642.3310355648243 659.6238785777667, 673.2628693124934 479.9163840264372, 727.1384254663145 160.49645862479682 M620.9536967364861 840.7507966879989 C660.5105194975137 574.4737411919934, 707.6970428701088 310.7770776548527, 741.7821166500959 160.66204246284968 M621.2290703749073 842.1116969224299 C643.1387730850013 701.3804797997906, 667.2293230234109 559.7563230027694, 741.6469788186762 160.6237820022047 M636.6195300442781 842.3828567278686 C667.8772296940543 666.9480363043724, 699.9704870383634 491.603661914505, 757.2326011419698 160.79140932644972 M635.9981432428267 841.0205638651851 C664.3067522971777 697.7744879801037, 690.3836889396384 555.1809584620702, 755.3614092000231 159.68517961512575 M651.0966471202038 841.8496802702621 C689.9632849960478 658.4129715922221, 721.4733664193359 474.206115609228, 770.4424651051027 159.88322523944876 M649.2533358468972 840.9712064869776 C688.3122214177313 648.692207620377, 722.751060657956 454.5822974343804, 769.310958340959 160.12021325864694 M664.5691118977223 842.5894154810302 C688.0179734658702 691.9695788689011, 713.054822343793 540.1164981840261, 785.5160849729531 160.38032586769728 M663.6247326283907 840.457705570846 C702.8558988141098 627.2273645259841, 740.3186228335112 413.35823481594093, 783.653054432755 159.6331199658063 M679.2342080996247 840.7966290380721 C723.2455603470163 579.2485565112316, 770.1251839551514 320.2674546882589, 799.8210569683125 160.63196538909474 M678.8814190679104 841.717279161877 C712.5060932220422 634.7210188904868, 748.4923068439758 428.68825254378766, 798.0591267060151 160.09627403169077 M693.1416246593698 841.8938441072386 C724.9754875405852 694.9519349599412, 749.2408663462254 552.5594085246411, 812.2273825246397 160.1653544694917 M691.8956671067282 840.6768205431085 C732.8409325810103 650.26708412282, 766.8021933883085 461.22081403838195, 812.4787908520105 159.89672498933837 M705.6542702997486 839.960002366429 C749.8426780555089 584.8968778150753, 794.2423521899204 326.42290501453886, 826.9682828647256 159.91412228678755 M707.4287497254471 841.4563602596278 C749.567443850033 614.4209963576523, 789.001219960382 387.61521282097027, 827.5256636013448 159.6396596338361 M720.8874589542203 840.6020019814939 C761.3288191997144 640.8082200587406, 797.2127268560389 441.621034970609, 842.6793844220292 161.08985450683298 M720.495126365339 841.5156040944727 C767.8612055848448 598.1453531174275, 810.1350994003486 357.166479807961, 842.0415481452894 159.29493999822202 M733.9697243455759 840.3831596303328 C779.8070443701611 624.9794224976908, 820.3129451708854 410.731538592378, 856.2595334193418 159.01055530752728 M735.1482575070074 841.3573950927301 C773.272269236621 674.7070995788839, 802.8607766403125 509.038355667553, 855.0822487144479 160.70056537758302 M750.482005407274 840.0947484787962 C780.4472039779364 636.1876560063408, 817.616870553176 434.2798451425351, 870.936333112455 158.95699310773335 M750.0447900917234 840.8742515374383 C780.2894079578047 666.451108665006, 810.9948095374484 490.0783589638795, 869.7081078224247 160.89401805796945 M763.1184608621061 840.1844602047836 C813.3857444464178 580.3118270927589, 859.1014977597766 317.7848232449951, 884.9951992571611 158.67712382631387 M764.430372100091 841.0518289736842 C785.8229411377037 690.1449396889293, 812.8684764820526 538.5133036228407, 884.6380617328244 159.2916865754315 M777.3520064658638 842.2127507271574 C813.1087413938141 613.4065345150516, 853.223181492354 384.7164373774729, 898.108415576251 161.29051414116836 M777.9301897957143 841.3002659375177 C816.1287912197157 662.7297416896843, 848.0980649924246 482.43649052099505, 897.9036959262506 160.86828897505617 M792.1633704743394 842.557263464781 C830.6921897154173 588.3171437331174, 873.509100249104 336.79657313065445, 911.0533746478496 162.71430272417177 M792.603023192198 841.0336072149897 C814.9160065970501 672.1778020618862, 844.5357815764509 503.9348728663916, 912.6924859886407 161.05783404590596 M804.7701491103237 840.5172525955534 C826.2841556264298 679.7454776250254, 856.3557904263157 518.5086671729746, 911.9234273367277 242.36743598817574 M806.1953015201454 842.0492271011865 C835.4506034344079 664.0638745133349, 867.3005856040307 485.20029272618405, 911.2836470425776 242.73285706801997 M821.8923438072759 841.3699287853253 C839.6747835056691 738.4587977268053, 855.8958895505635 634.1772744636805, 910.6007417896986 323.59719185805426 M820.7316404708284 841.8591751291466 C845.3342205225915 725.7559488018981, 865.3094533821513 610.7724918531776, 911.6459927426876 322.9059435834597 M834.8383426355111 840.3393060610885 C849.5206594959631 735.237198464725, 865.7250707691752 630.6635250171553, 912.8195559506016 402.2812693233524 M834.945858517986 840.8244210033557 C852.5947242986376 734.043640909847, 872.6441725920553 623.5634126048853, 911.3528826146236 403.9103963242138 M850.5970225404982 842.4008001063154 C867.1991509680421 701.0805327278784, 894.2101902397484 555.630449990924, 914.3471309008368 483.8568053527804 M849.9684594021916 842.0569445058803 C859.9695760647182 752.0408128133572, 877.8083829947711 663.3280531589891, 912.6266842402044 484.06084677392204 M865.2695535285616 841.8006532339889 C879.0419186519322 746.2923590104647, 895.2072206715029 650.0328820507756, 911.6865484647896 563.1671370298577 M864.0484009355607 840.5481756912493 C873.2764793812312 768.5815323120692, 887.0391383266387 694.7011879797228, 911.4705531018636 564.8333156317717 M873.7660140346444 839.1872963777474 C881.3257360221642 793.6131693269367, 888.9511882398415 751.5601774068973, 909.7014653619352 646.4719171771357 M877.3333845406479 839.7289916726492 C882.6161246517473 775.1589039561892, 896.4566857818586 708.1763534827347, 910.4136120334241 646.5038966169158 M893.6176057075475 844.3173906081979 C893.0519793809859 798.5254690439486, 906.3185957009287 759.2429339542327, 909.1330204946469 727.6535248202763 M892.7572879129414 839.9171271776472 C896.6755186399927 813.9164874755746, 901.2230134798554 786.3725753832427, 911.0493472279529 726.6612682366303" stroke="#5a3324" stroke-width="1.2" fill="none"></path><path d="M498.38916559742574 160.98500133916454 C581.3917706697965 161.02447842947643, 659.0253652844723 162.48992587065214, 901.3348465608135 159.03425702817017 M499.6925912473865 159.55953459285394 C603.8227152932913 163.84436015203462, 706.7861573284805 164.28554366550705, 899.7256648747606 160.47157756576638 M898.9324403211474 160.6267421081662 C907.2695488259196 318.6607130788267, 907.9100428387524 475.73973562419417, 898.4338540002703 840.5664470508694 M899.6503878988326 160.67426454648376 C905.2098463696539 319.44013356119393, 905.5205315989554 479.7645192690194, 900.0045871414244 840.625903698057 M897.8641995712326 839.3280309700101 C771.0307800387441 843.3493139612181, 641.0160942892832 843.2723040146526, 500.39769426840024 840.2177099489174 M900.3828414174311 839.4558368186642 C749.3871557095298 844.969288979835, 598.0133580853953 844.9507059888138, 499.3178345601174 840.531275426533 M501.18748554438355 839.5147129371762 C491.58532017391923 622.6705991156399, 493.01446469944716 401.3161657750606, 499.1329757615924 160.67298782616854 M500.68756636753676 840.7161273680628 C497.59010955038667 661.2314268141985, 497.47587870302794 484.09152225032443, 500.0029548801482 160.23501963242887" stroke="#f0a98a" stroke-width="2.4" fill="none"></path></g><g><path d="M670.5328978557139 189.71239316873252 C684.0185096438973 191.4781091713071, 695.5060276363046 188.28428541651965, 726.2638367790729 190.66516262702643 M671.3082931956276 189.620846141316 C684.9654617650434 188.0221879214868, 700.4744085555897 186.5538515956029, 727.0088732143864 190.31893164608627 M728.5576061386615 191.60591932944953 C720.3247034345059 198.76652946427035, 715.409892936354 202.72710086523125, 706.5420992154628 214.5712296050042 M727.8011372467503 187.29603788349777 C722.3312836146848 195.1560502644722, 714.4849325890774 201.2575788694062, 704.2000347932801 215.1795064220205 M703.1699719686062 216.2168965857476 C702.9805749055332 221.2469432068523, 704.4321163650936 224.81224793037399, 705.8620353121311 236.50655187778176 M705.5394316991792 213.20755107495933 C702.5414021287778 223.27149296854623, 703.3422031496385 231.57811159705744, 703.6482129355893 239.08661382887513 M704.5849266095832 239.33637119060012 C701.7155457627624 236.96927556750043, 698.75719769945 237.1382819974111, 694.6949673059656 237.3028262713477 M704.2506241668724 238.28715909532085 C700.6634989967234 237.68223367343427, 698.1497331062071 237.64708823702813, 695.6627548177503 238.62180762496965 M695.8893657226115 238.97279618196188 C695.8169614610428 227.05718397297895, 694.2783471283668 222.62739138985054, 693.7664304394275 215.86374160461128 M695.5158239563926 236.53819903228433 C696.435538778304 230.12684944900684, 695.997854462861 222.51199740143494, 694.8626648088916 212.1929900119081 M696.0389961857348 215.6848816078156 C690.698571216269 208.63888987832902, 686.9107921755412 202.67565680215336, 675.2286482591182 187.88011589460075 M694.2144564291461 213.726291317679 C690.1152588336615 205.50270072491136, 681.071438156355 200.68747404873602, 671.2156450828537 188.60379443261772" stroke="#f0a98a" stroke-width="2.2" fill="none"></path></g><g><path d="M694.3077759977507 177.14125128654976 C694.9366166066038 176.74395321179196, 693.9140211509946 176.3850296759361, 693.8534243863938 176.20520161948045 C693.7928276217931 176.0253735630248, 693.797782648968 175.61846103976546, 693.9441954101464 176.06228294781587 C694.0906081713249 176.50610485586628, 694.848254120767 177.973873374821, 694.7319009534648 178.86813306778282 C694.6155477861626 179.76239276074463, 693.6124660707678 181.41318071528977, 693.246076406333 181.42784110558677 C692.8796867418982 181.44250149588376, 692.6347089185152 179.2618118209668, 692.533562966856 178.95609540956482 C692.4324170151968 178.65037899816284, 692.6799101472691 179.5575131510135, 692.6392006963781 179.59354263717486 C692.5984912454871 179.62957212333623, 692.6316568070952 179.27220658193286, 692.2893062615099 179.17227232653312 C691.9469557159246 179.07233807113337, 690.5471381451686 179.14940528856954, 690.5850974228662 178.99393710477642 C690.6230567005638 178.8384689209833, 692.3603950842281 178.52925950923208, 692.5170619276954 178.2394632237744 C692.6737287711627 177.94966693831674, 691.3981924542892 177.521601009413, 691.52509848367 177.25515939203035 M691.2685859896038 177.24801247513503 C690.8298186911048 176.83099388827014, 691.7336068126449 175.278769570854, 692.1556073266729 175.51054768313122 C692.5776078407009 175.74232579540845, 693.5051232856105 177.662347055176, 693.800589073772 178.63868114879833 C694.0960548619336 179.61501524242064, 694.3186857647987 180.95810966512101, 693.9284020556424 181.36855224486516 C693.5381183464862 181.7789948246093, 691.8425254728179 181.16031810435874, 691.4588868188342 181.10133662726327 C691.0752481648506 181.0423551501678, 691.9712684119414 181.72573649848417, 691.6265701317408 181.01466338229238 C691.2818718515401 180.3035902661006, 689.5552772512814 177.70036741243152, 689.3906971376306 176.83489793011262 C689.2261170239798 175.96942844779372, 690.4888342413511 175.66012815397343, 690.6390894498359 175.821846488379 C690.7893446583206 175.9835648227846, 689.7708989466842 177.47860435790247, 690.2922283885389 177.80520793654605 C690.8135578303936 178.13181151518964, 693.0634575197516 177.6382493482086, 693.7670661009644 177.78146796024055 C694.4706746821771 177.9246865722725, 694.5578875411093 179.22909282984537, 694.5138798758151 178.66451960873763" stroke="#f0a98a" stroke-width="2.2" fill="none"></path></g><g><path d="M705.3645949240047 177.78618772474945 C705.839500449243 177.72522522853558, 707.7984810810583 178.35029431944764, 708.2137395831102 178.18261541515042 C708.628998085162 178.0149365108532, 707.9399849705668 176.70258333350316, 707.8561459363161 176.7801142989662 C707.7723069020655 176.85764526442924, 707.3538352691997 178.14721252047403, 707.7107053776062 178.64780120792867 C708.0675754860127 179.1483898953833, 710.1284395530511 179.42642355864092, 709.9973665867553 179.78364642369408 C709.8662936204596 180.14086928874724, 707.6045282258428 180.62182649382433, 706.924267579832 180.7911383982476 C706.2440069338211 180.96045030267086, 706.0540453470506 180.88167237398147, 705.9158027106902 180.79951785023363 C705.7775600743297 180.71736332648578, 706.1973895205448 180.69875742927923, 706.0948117616689 180.29821125576044 C705.992234002793 179.89766508224164, 705.3397629675295 178.69174698727468, 705.3003361574346 178.39624080912094 C705.2609093473396 178.1007346309672, 705.3173418665776 178.83844504749095, 705.8582509010993 178.525174186838 C706.3991599356209 178.21190332618505, 708.3767931312309 176.76776420881885, 708.545790364564 176.5166156452033 M708.3890659370377 178.23899775685848 C709.1897557532999 178.40285121942907, 708.9181110101056 175.6035587643067, 709.37891899839 175.64901633489754 C709.8397269866743 175.69447390548837, 711.2294681046722 178.05780188464837, 711.1539138667442 178.51174318040339 C711.0783596288163 178.9656844761584, 709.1701023655709 178.2428369890419, 708.9255935708226 178.3726641094276 C708.6810847760743 178.5024912298133, 710.1032188669298 179.13701110061422, 709.6868610982542 179.2907059027176 C709.2705033295787 179.444400704821, 707.4567587268411 178.9367211739345, 706.4274469587696 179.294832922048 C705.398135190698 179.65294467016147, 703.4319055505056 181.25883105592828, 703.5109904898248 181.43937639139847 C703.5900754291441 181.61992172686865, 706.4281079827123 180.87435800949146, 706.9019565946854 180.3781049348691 C707.3758052066586 179.88185186024674, 705.9971989288492 178.9503553898699, 706.3540821616639 178.46185794366434 C706.7109653944785 177.97336049745877, 709.2942281403695 177.54028549487865, 709.0432559915736 177.44712025763573 C708.7922838427777 177.35395502039282, 704.8260588320653 177.9272431331906, 704.8482492688887 177.9028665202069" stroke="#f0a98a" stroke-width="2.2" fill="none"></path></g><text x="700" y="300" class="title" font-size="42" text-anchor="middle" fill="#f0a98a">Post-Structural LASSO</text><g><path d="M527.7420281318631 316.9366315626611 C595.4590854620087 303.8715745923618, 666.2808633508062 307.4760021736182, 867.6257016786685 314.1663518098482 M528.785400522681 313.7401791365331 C617.4756332967875 316.5898107772677, 702.8244899214752 317.4486590704965, 868.410469752163 313.44430905904164" stroke="#f0a98a" stroke-width="2" fill="none"></path></g><text x="530" y="370" class="body" font-size="22" text-anchor="start">One LASSO; treatment forced in.</text><text x="530" y="408" class="body" font-size="22" text-anchor="start">Plain OLS on selected support.</text><text x="530" y="446" class="body" font-size="22" text-anchor="start">Simple but causally fragile.</text><g><path d="M527.8990343913435 768.6891045466066 L865.3655692443251 770.1929928198457 L873.9564067706466 817.3112258806825 L532.1844864234329 820.9441455259919" stroke="none" stroke-width="0" fill="#0a1d3a"></path><path d="M530.5039947023967 767.1585769910954 C595.6513209794974 773.5869184995239, 666.5667757807405 775.0576912089316, 868.6504879714438 768.9401143621897 M530.5987889049754 770.4759072711716 C663.3523689057298 762.6596679639445, 795.7758394945349 761.9710016538367, 871.5503735229063 771.494711410819 M873.4059151545167 767.3304236754775 C867.3479407384247 780.1395660543815, 867.4516718461365 798.3968880597502, 874.5674502745271 821.7922016963363 M870.805640309304 769.4633704133332 C872.7846223884076 783.3878633378074, 869.7081737809629 793.5455540467053, 872.0905767135322 819.0285389132798 M869.7292844578355 820.2144545776335 C796.5707072020759 824.7201237160943, 726.4989928147947 824.5977353521805, 527.214512220187 823.1098638475131 M871.1956713087884 818.5170937229572 C753.1371536975367 818.7529568475516, 633.2596615912304 818.807603158919, 530.2636327482799 820.2690610176553 M532.1436773195862 819.0478937491774 C525.485252204314 806.7150826876983, 532.7301057485491 789.907306721434, 529.5379547491669 767.413697038591 M532.3124725751579 821.3636754460633 C529.6196813920885 798.0628579275683, 531.9506256679446 778.5138417091221, 527.8399001292885 770.219140882045" stroke="#f0a98a" stroke-width="1.6" fill="none"></path></g><text x="700" y="803" class="label" font-size="22" text-anchor="middle" fill="#f0a98a">one-LASSO baseline</text><g><path d="M940.0860323618456 840.3210771455028 C940.0860323618456 840.3210771455028, 940.0860323618456 840.3210771455028, 940.0860323618456 840.3210771455028 M940.0860323618456 840.3210771455028 C940.0860323618456 840.3210771455028, 940.0860323618456 840.3210771455028, 940.0860323618456 840.3210771455028 M955.1777178661997 843.1061390466256 C953.2514746361333 821.8866454137518, 946.2281305661015 806.4526519966072, 937.706575968907 784.9548326113213 M954.526164660054 839.9813251844806 C950.311427709072 820.6666543120443, 941.9508555811136 803.1443868459016, 941.761334227071 784.1907124423374 M968.2541140504783 841.3722312615758 C956.2397167274381 806.4990430224327, 952.1041091659592 767.7431955200394, 940.6577121948272 734.136692689826 M969.4527150057858 839.0389449091202 C959.65434127384 813.8883489862835, 954.466154284745 786.6236524901245, 941.4011942555577 730.7592462097306 M979.7243853568273 838.3843409325808 C961.8599793717353 780.66077682374, 946.8679247452264 726.6174679087159, 943.3313368240679 679.5562694431352 M984.88337759517 840.098677976045 C970.8412670211158 787.9063347209044, 954.5833220106149 732.086158690475, 938.9550786370719 677.1973249600338 M998.7803464321414 840.7676691234543 C982.2399904837567 770.9560358756053, 960.678362520737 695.4879170242724, 939.8954690978471 626.0001349266497 M998.2398258429572 840.8123806156326 C984.2453027720463 796.5275383811057, 971.3285829471761 752.3451870196154, 941.1597944857065 622.4033146826216 M1014.021333576407 839.9216503884035 C993.9057899199976 768.6294598513633, 977.1528647264727 695.7640624162466, 940.2344174144474 568.0124853395723 M1011.9500384456915 840.3189956231731 C985.1790491064197 750.6550092383184, 962.0787646450444 661.0369476749962, 938.4158288286152 568.1908986337602 M1027.8794497743352 839.3740766881223 C1011.0828636643779 755.5306013904674, 984.5997545680144 671.792458309233, 940.1979454910579 513.2167684949798 M1025.8404663818017 839.7151485129427 C1013.1815762917035 768.0745760522499, 994.7002311028324 694.4056716032518, 941.04755654157 516.0931941609269 M1039.4681958830208 839.5105827605312 C1013.8521331692805 718.6702565770232, 984.0461748366157 598.0983719474356, 942.2018740238362 461.6211353167293 M1041.9298043515714 839.345188973814 C1010.5374369971591 738.7480477926088, 985.3195544548654 639.0182029255002, 939.074787542823 460.67936872252517 M1055.3618043171612 841.0187912573389 C1023.5074308653608 701.5995337349574, 984.9649273380174 563.061668019945, 940.3783572665418 407.1089354424676 M1055.3812893441363 839.5082147771978 C1014.7806362732255 698.5612302175203, 975.8041959385558 557.4759735299881, 940.4864106394783 408.46625885949726 M1070.5310675448677 839.5919258913468 C1047.1577577462263 737.7161440155614, 1020.7986613371079 635.1098910326872, 939.5053684302017 353.7229218607848 M1070.3716890907785 839.0345685532759 C1021.2194018594425 667.6590469822877, 975.764459064941 495.4879702174266, 939.5974842883988 352.2475128984159 M1085.3686878082783 841.1055418909347 C1033.157777226892 633.7070040296156, 979.6522680139999 428.22086486746645, 940.723127294824 298.2461747424816 M1085.265801682833 839.489380517677 C1047.6524567427532 722.6690762015495, 1015.5975501124143 605.7865966544639, 940.5548195881104 298.6648639666056 M1098.827920620517 840.878502372944 C1065.2366190934713 689.5760801478333, 1024.1372039024038 538.7402337565553, 939.7439440207748 245.37545179410023 M1099.6670279223483 839.8270690689918 C1057.6209522974666 667.1125251781169, 1012.4820998890557 493.97216028189507, 940.2582333790331 245.03706427795927 M1112.8823987940839 840.9402995248756 C1065.7329289855074 652.3417156611424, 1013.5649416641266 460.17690888894543, 940.4727014205537 191.70899520314072 M1114.6307389030746 839.8657006134711 C1059.1968034714196 655.4974315429126, 1009.3603511780317 469.76577520891163, 939.5474717549166 190.74780523872707 M1129.1281860963766 838.1732497079397 C1062.4468226518952 584.2946607047083, 996.3789688501649 332.27826461286605, 944.8483703440188 159.68009116175162 M1128.9628616736595 840.1980407310748 C1082.1390856729163 668.1880853799353, 1035.6450443462702 495.3350790663881, 945.5244938468693 160.03769725980746 M1143.6190534300997 840.776196762215 C1080.6355001175373 593.8533129722291, 1018.1164662538278 351.00902371821337, 959.726524054695 159.38374012032367 M1143.3551554180576 839.7552574806322 C1103.6796936429398 704.6286688621598, 1067.109617710194 567.1105671865516, 960.5359861996659 159.33094001034118 M1158.313564562651 839.8689570489121 C1108.5589996612307 628.3807158750847, 1049.5673265360886 413.9539345624692, 976.5147668766994 159.3988819988176 M1157.1322971849168 839.7113664421034 C1103.7861315300484 633.1025687002063, 1048.5831040647033 424.4860277664701, 975.9087914186733 159.55754762903896 M1172.7103523065302 838.7560227555309 C1116.1112052930735 651.6356805874358, 1063.3275541892624 459.76795443361965, 991.0429816225319 159.99875898473337 M1172.3871580679868 841.0469340217387 C1108.6682816342882 621.4060308810731, 1051.3171293822306 405.8530784687514, 989.920155597642 160.06371152215078 M1186.7304804291355 837.9947102432827 C1139.0106262335848 668.8696855550627, 1095.4370759945812 499.10226089861277, 1004.56348205959 160.109437439282 M1186.9631651159154 839.517225799499 C1116.610164330219 578.8182938231292, 1046.8063441195143 314.82857914673326, 1003.6978807852189 159.07032226963767 M1201.9527198331712 839.0588633522453 C1133.9337306195775 582.5741351656804, 1063.1489607745355 323.6493014035178, 1018.5862890905788 160.97351120254157 M1200.1895775126573 839.2159098342123 C1150.0410036443382 661.3434017560559, 1100.7487673998583 481.80572331908377, 1018.9556011653593 159.23667293032761 M1213.8606342860348 841.54329844363 C1147.7099910778657 593.1004873146492, 1080.9272372147882 345.67013713508095, 1033.5262164828957 160.154546635723 M1216.0285723068603 840.4795017058399 C1159.1256245446775 620.181496707402, 1100.1499689536518 403.1134011775083, 1033.1398687867106 160.36490408418166 M1229.0778566002268 840.4275077049363 C1186.7798634501064 694.781306276889, 1148.015593984179 552.206217797981, 1046.7381470490407 161.60078592632627 M1229.610520592274 840.6510678206313 C1156.318961619095 600.6980463578035, 1091.4502995023702 360.2994182196323, 1048.3654297430228 160.16370713744973 M1245.850450543144 839.9438074973756 C1197.4584358370525 664.8134034778756, 1150.1786363758779 489.66266965716903, 1061.7993945564112 160.7132954355624 M1244.216349417546 840.2483737585478 C1211.2834772578658 695.0599869973199, 1171.839536692957 553.0594219094883, 1062.7975860829436 158.81647267009285 M1258.4821870174924 841.2410416610259 C1204.5271797268715 615.9395796637397, 1146.338131234349 391.39961034531467, 1076.9449799077126 160.8096690035095 M1259.412817966632 840.5275875784176 C1192.4432715429216 576.493688250157, 1122.4082227388583 315.3876501063945, 1076.3874719904277 159.7449937409391 M1271.9816297906686 839.5890265570979 C1200.3371582076848 600.2546144179711, 1137.8286581134846 359.6312166263514, 1090.114716870342 160.7284729913784 M1272.5996032881787 839.3877248602014 C1225.1751844669627 675.2856688238563, 1180.8366529961447 511.8987066163082, 1090.8191395141228 160.71391092994938 M1287.297411675173 840.8422543730919 C1238.8837005644195 626.9357443993376, 1180.7498914703608 410.85634990473966, 1106.5884882567996 161.69294958666927 M1287.944576475936 840.1343520101492 C1247.8789430894915 686.2408472759125, 1207.1284784678612 531.1597449305884, 1105.6448347477788 160.99441564337377 M1301.000596438403 840.1080414702184 C1241.987035205943 643.8031023206015, 1188.0248411892717 446.7191424755268, 1119.4686078344828 158.77916515059283 M1302.966164578552 840.0477346082217 C1257.4788022687796 648.1254679527168, 1205.568511342568 457.45209762560387, 1119.2673597400433 159.5323984611731 M1316.1199549830637 838.2102316885563 C1247.2250755438963 581.5728969787186, 1176.410246057469 322.76232482588944, 1133.3150965060966 160.57971352322738 M1317.4686267799816 839.1465407132479 C1278.910693830374 672.3529377543175, 1233.4488234650778 506.15225317314673, 1134.6753486748712 160.51215244217556 M1331.1890510765525 838.8936413893157 C1266.7622198402903 614.3524826867651, 1203.686424310526 386.2271550214076, 1149.9927680390383 160.80816106578385 M1331.889140128872 839.2922859051878 C1281.5879788377285 652.0040257116522, 1231.173447909315 463.44719556332046, 1149.7903536009098 159.66081816634215 M1339.505136629319 820.3692462342158 C1275.4366278250552 604.9276381661929, 1214.971022857829 385.8346902028849, 1163.5065052458085 161.16274996576215 M1341.456694816923 820.8345200645103 C1294.0613873909858 642.5651400132365, 1246.9690225435459 463.8162179042252, 1163.2021206119098 161.01208703992273 M1341.42317068712 765.9645493638421 C1283.1413796244672 544.828592495202, 1225.2226459149101 326.03446452467597, 1178.883621893804 159.59454658437323 M1340.1861131711414 765.5611955505515 C1306.0991460212704 608.2098278748491, 1263.4688777517065 451.7860851697783, 1178.350951756518 159.0743496428783 M1342.0144097763523 710.9517243646795 C1315.3945316840143 593.5200864914381, 1281.4399938570293 476.66104240583985, 1191.0091388857304 160.3711447616953 M1340.6366399991737 711.8268101685459 C1309.1527231319421 587.194668279886, 1276.7405737617169 461.3850870329322, 1193.2629812186897 160.394399034037 M1339.7374176644125 657.9505875979388 C1311.404878187863 526.407493807861, 1273.2858376198178 392.6624470933724, 1205.6728699889848 158.48111085893925 M1339.8829523496665 659.0553794984544 C1301.3571472097472 490.7111805622707, 1257.55675829857 323.44975336364007, 1206.897261047072 160.26187579335985 M1340.1015062227516 605.960501885888 C1312.099410135525 477.3981519100105, 1275.8242776064703 352.6466519984955, 1221.5937442957968 159.1358718956703 M1341.0079982081365 604.9244484016606 C1297.1627791246055 465.5323687235741, 1259.7346502201153 326.7230243048006, 1221.6827952569065 159.34034361829725 M1339.5009636420948 550.7246275811224 C1300.1680972506347 404.7142686181152, 1262.692659837813 256.8786818024625, 1236.7916737909618 160.80808621684443 M1341.3057728373567 549.6665736759999 C1314.859687234737 434.4868957854831, 1284.4283756011218 319.14747840346104, 1236.700927969823 159.20053001881962 M1339.3455450954527 495.0505557203243 C1317.5190896634208 423.0379644269871, 1297.4706216795971 355.5303967961489, 1252.5067331188725 157.96697670044358 M1340.4603088937117 495.8208246807523 C1320.4289133944344 425.1089046378675, 1301.442194302713 351.43004892583343, 1250.9625450925403 158.58191762099585 M1342.93537153123 442.06246059854317 C1322.0510251684007 380.2258212681442, 1307.650648055981 323.26403862147146, 1263.1846154013701 159.6706728430789 M1341.2285050857377 441.8494670348198 C1324.4859471886696 379.0552431370675, 1305.6517459731742 317.1946855148433, 1264.1479324093757 159.92921428044588 M1338.0803433429314 386.4271235371166 C1323.0799286054323 322.93116350976834, 1306.7010233112542 251.85383226250792, 1280.801574005398 160.0981223676509 M1339.4558405670712 388.52818518339257 C1324.9770269077508 324.6925897143014, 1307.317633835995 258.21159015028434, 1278.9741545497477 158.93908587907893 M1339.5425844898816 335.44541256221356 C1328.4692655467913 277.45496607953214, 1311.820619025396 215.87702944011647, 1293.5865846131576 161.25142036628364 M1340.7321005052324 334.57298956157985 C1331.550205149937 290.3600584097091, 1322.8911863368492 244.71965016806686, 1294.4204308916462 159.8451292912328 M1341.8387982304503 278.8639822354447 C1328.5848815280897 251.62594704623308, 1320.4646762869088 221.22526404380193, 1310.2940995718502 157.2518723224448 M1342.4910477529575 279.6006831800472 C1327.2689134762863 232.2206280397169, 1313.2460117540168 187.72339050114533, 1308.0278818111085 160.6543435593294 M1340.6245902180892 226.71411623973057 C1331.3786193893484 207.94036660062042, 1326.1666573604678 186.3136508671144, 1325.6323060588632 159.36308782841064 M1340.7531306818348 227.49084170329974 C1334.9403185173119 210.15352437099165, 1332.1695358917634 195.05783230231972, 1322.6421305210981 160.59970437283613 M1338.8027545456923 173.36947264205915 C1341.5848980423877 168.22167012255727, 1337.8890677599657 168.13449542374528, 1336.6780443020389 159.73970506133762 M1340.4776452710068 170.81967430394394 C1339.514971847113 169.31072941229408, 1338.1905595344535 167.6029374001222, 1338.7587729923653 160.99431579800574" stroke="#1f3461" stroke-width="1.2" fill="none"></path><path d="M939.039047617023 159.15601731824586 C1022.0616908966871 155.27322349559677, 1099.6280720274558 155.39385111473834, 1341.9115359088446 159.79318383289714 M939.661637606803 158.99085398401525 C1029.548982615087 162.3283462161802, 1117.7029959485512 160.86068145387353, 1341.010334211556 160.24251801691938 M1339.0316180408001 160.83444746136666 C1340.4226052672864 384.11888464391234, 1337.6679873855114 610.0783035159111, 1339.7453034579753 839.9432199299335 M1339.6988047510386 160.20413738191127 C1347.5608868490458 430.397460180521, 1347.3916000257732 700.6458214312792, 1339.9381122499703 839.8164183229208 M1337.748188057859 842.0155009105215 C1183.9109102871957 840.5727974008911, 1024.900124033653 839.0906758426034, 941.7799629220071 839.2432482053852 M1339.2062656224537 840.0865414613302 C1192.6219496597332 836.7398691265672, 1043.9371649235602 838.2909265618619, 940.4081644503207 840.2041734307883 M939.3872695147991 840.486748868227 C940.0982429358959 571.1689073354006, 937.1662935111523 299.13268811702727, 939.1814603030682 158.67028940320014 M939.6517804056406 840.6919606775045 C942.1507851835489 671.999804031849, 942.5188946005106 505.5687405258417, 940.3970266252757 160.07222867906094" stroke="#9ec3f0" stroke-width="2.4" fill="none"></path></g><g><path d="M1114.034417296946 191.05734088271856 C1120.8820805196465 189.7026643490821, 1123.1334073776006 186.05280401468573, 1139.7645441070197 192.00858995765446 M1115.6351070992648 187.55478861406445 C1119.5732816627622 189.77991897200167, 1125.2043875922263 188.33370770548404, 1141.3961572043595 187.20441165044903 M1142.6200796142218 187.5630581125617 C1140.9479386971427 193.8472151309654, 1135.4220908253178 202.1263426702872, 1132.7630009189247 210.9173574194312 M1142.4518763892352 189.82518477514387 C1135.2812031005487 197.92061895816477, 1132.5410576716974 205.11252907491178, 1130.6266830556094 210.7177773244679 M1132.3352722659706 206.42755067199468 C1135.2931768823607 223.09036018702193, 1134.2694369607239 231.02298934462473, 1138.2013884559274 235.0221560701728 M1129.352256976813 209.6965277440846 C1132.5463855493617 218.00070072436765, 1135.4145916857747 223.14295455092625, 1137.278979384154 237.8138525016606 M1141.236880017817 241.23534004539252 C1132.9050739311829 233.13624314255907, 1127.517007537338 217.7489103201766, 1126.5256539836525 211.1434448942542 M1139.6667908541858 238.66132240369916 C1136.0800735066339 229.797726786751, 1132.3592273460954 221.78533841581987, 1125.126556932181 211.3296733148396 M1123.0083501353859 210.5693852171302 C1124.5863005327092 202.27227172015517, 1118.325785013999 198.55114602094798, 1112.8583072677254 191.05012037605047 M1124.850238763541 211.17535488680005 C1122.485143627949 205.7004001872924, 1122.344384817235 201.18753146811696, 1116.9421451918781 189.59055714681745" stroke="#9ec3f0" stroke-width="2.2" fill="none"></path></g><g><path d="M1135.7774915028365 189.192333413288 C1147.7066369256006 187.43263767590537, 1149.5254113309086 185.7747721158506, 1165.736073725298 189.1147938620299 M1140.0675090854988 189.83106611017138 C1146.502363914624 189.80546121630505, 1152.0360291304069 187.33383924398257, 1165.9514834886418 190.35948022250085 M1165.5861472535878 188.0140779387206 C1162.1809014462924 192.63860056672655, 1157.7282955748274 196.1173885766644, 1155.4659868765623 212.95251853577793 M1164.987696266733 190.18649147395044 C1163.302371648584 195.01582766310344, 1160.09430446291 197.44142292062782, 1153.3590613787994 209.55181602481753 M1154.4303151655943 209.6433583986014 C1148.6507227699983 219.14220562773022, 1141.7658654865495 233.73531969869708, 1140.7070103336127 237.89581381194293 M1153.2540891593324 211.2378101253882 C1152.7132251592484 216.24099929149148, 1149.1701569184327 220.2201695613831, 1139.9690888768064 239.6891723120585 M1139.1397926021368 237.12869774214923 C1141.6228663849395 224.1849504938608, 1147.3713105900058 216.64203527590988, 1147.7908945847305 212.5724995147437 M1141.0591133004054 238.65812387112527 C1141.992827522007 231.58678723349425, 1145.2204990856417 224.1451505806223, 1147.9198899572716 211.30812745336442 M1146.4682050514969 207.42604079358279 C1148.235622725217 200.2946637193691, 1140.5163978932521 198.97319777943378, 1140.6857182431968 191.00531734339893 M1149.6551551645623 209.4949485803023 C1145.0854378516233 202.51561636759376, 1140.47596904425 195.78557666887008, 1140.0534995323048 190.37592388037592" stroke="#9ec3f0" stroke-width="2.2" fill="none"></path></g><text x="1140" y="300" class="title" font-size="42" text-anchor="middle" fill="#9ec3f0">Double LASSO</text><g><path d="M972.3133433495684 315.2789582169454 C1038.1488277211836 315.00447126727346, 1108.5875681071054 313.97987103581136, 1309.5558209015962 311.5942609553716 M969.3474979585039 312.5636157458795 C1063.838460684877 320.6195126873745, 1155.8821020412058 320.5669458665699, 1309.0818259098703 313.04884095455947" stroke="#9ec3f0" stroke-width="2" fill="none"></path></g><text x="970" y="370" class="body" font-size="22" text-anchor="start">Two LASSOs: y on X and d on X.</text><text x="970" y="408" class="body" font-size="22" text-anchor="start">Union of selections, then</text><text x="970" y="438" class="body" font-size="22" text-anchor="start">post-OLS.</text><text x="970" y="476" class="body" font-size="22" text-anchor="start">Causal-inference safe.</text><g><path d="M968.8582896769046 772.1009938657284 L1312.6748925745487 769.7394660413265 L1309.7652808725834 817.873000472784 L969.6058217585087 819.822104972601" stroke="none" stroke-width="0" fill="#0a1d3a"></path><path d="M968.675738720102 771.9004748453797 C1038.3410632386722 769.4888357184356, 1108.8734805370398 766.3305806151247, 1310.5806071943716 772.767594707713 M971.1608863407985 769.299343880518 C1041.7151962938192 766.6893698740512, 1112.8334516142654 768.2890740499101, 1309.0219440806138 771.0992433063368 M1312.2940053403377 767.9317834436894 C1306.0896195068956 779.1673008941113, 1307.853036750853 801.0092209324241, 1313.1047648847102 824.5057498514652 M1309.1200668126344 769.9451126784086 C1309.8143533447385 782.343368948251, 1309.1943802574276 798.050679783523, 1310.6670811444521 822.2739238470792 M1308.213868574946 823.0727588154016 C1236.0904256942656 821.1297158944157, 1156.347925453539 820.1377463043128, 966.952860309982 819.2644839423589 M1311.2861827396887 819.8870307144097 C1199.5863946921768 826.062297843171, 1089.3126036257622 825.6826302512931, 970.1659588418942 818.736114674518 M965.6142274320125 823.1723706781864 C973.7718581804634 803.5065027810633, 967.2588716158272 786.4583655968308, 966.1582755506039 769.3191031992435 M970.4355691701173 821.3594107359647 C970.8042891344428 800.7050919108093, 969.5497640451789 782.3760385885835, 971.2976774960756 770.1904130667448" stroke="#9ec3f0" stroke-width="1.6" fill="none"></path></g><text x="1140" y="803" class="label" font-size="22" text-anchor="middle" fill="#9ec3f0">recommended</text><g><path d="M455.6111425690353 496.66294990256426 C469.2622992672026 498.07876997476814, 472.6596771262586 503.53450172430274, 501.4718537382781 496.6518004246056 M459.46330196000633 500.24891146682205 C470.6765932727605 499.2551294815093, 485.12500764764843 499.41737991686165, 501.37341592647135 501.36018669866024" stroke="#e8ecf2" stroke-width="2" fill="none"></path></g><g><path d="M496.70835692677645 497.4972124269232 C498.4992306745298 496.1255452903777, 492.6393338530011 498.4156447705671, 489.1038903037086 488.4888503184542 M499.5974764700048 500.1866836001165 C495.7056985758066 495.64756716069803, 494.07727213500146 493.0982398682185, 489.0300619448535 492.02014002399517" stroke="#e8ecf2" stroke-width="2" fill="none"></path></g><g><path d="M496.70835692677645 497.4972124269232 C498.5783577946328 499.72894395430086, 492.7184609731041 505.6224420984134, 489.1038903037086 506.4888503184542 M499.5974764700048 500.1866836001165 C495.3797168893918 500.98959739868565, 493.75129044858664 503.78230034419374, 489.0300619448535 510.02014002399517" stroke="#e8ecf2" stroke-width="2" fill="none"></path></g><g><path d="M895.6111425690353 496.66294990256426 C909.2622992672026 498.07876997476814, 912.6596771262587 503.53450172430274, 941.4718537382781 496.6518004246056 M899.4633019600063 500.24891146682205 C910.6765932727606 499.2551294815093, 925.1250076476484 499.41737991686165, 941.3734159264714 501.36018669866024" stroke="#e8ecf2" stroke-width="2" fill="none"></path></g><g><path d="M936.7083569267764 497.4972124269232 C938.4992306745298 496.1255452903777, 932.6393338530012 498.4156447705671, 929.1038903037086 488.4888503184542 M939.5974764700047 500.1866836001165 C935.7056985758065 495.64756716069803, 934.0772721350013 493.0982398682185, 929.0300619448535 492.02014002399517" stroke="#e8ecf2" stroke-width="2" fill="none"></path></g><g><path d="M936.7083569267764 497.4972124269232 C938.5783577946327 499.72894395430086, 932.718460973104 505.6224420984134, 929.1038903037086 506.4888503184542 M939.5974764700047 500.1866836001165 C935.3797168893918 500.98959739868565, 933.7512904485866 503.78230034419374, 929.0300619448535 510.02014002399517" stroke="#e8ecf2" stroke-width="2" fill="none"></path></g></svg>